{
	"asset":{
		"generator":"Khronos glTF Blender I/O v5.1.18",
		"version":"2.0"
	},
	"scene":0,
	"scenes":[
		{
			"name":"Scene",
			"nodes":[
				0
			]
		}
	],
	"nodes":[
		{
			"mesh":0,
			"name":"Cube",
			"scale":[
				100,
				1,
				100
			]
		}
	],
	"materials":[
		{
			"doubleSided":true,
			"name":"Material",
			"pbrMetallicRoughness":{
				"metallicFactor":0
			}
		}
	],
	"meshes":[
		{
			"name":"Cube",
			"primitives":[
				{
					"attributes":{
						"POSITION":0,
						"NORMAL":1,
						"TEXCOORD_0":2
					},
					"indices":3,
					"material":0
				}
			]
		}
	],
	"accessors":[
		{
			"bufferView":0,
			"componentType":5126,
			"count":1700,
			"max":[
				1,
				30,
				1
			],
			"min":[
				-1,
				-1,
				-1
			],
			"type":"VEC3"
		},
		{
			"bufferView":1,
			"componentType":5126,
			"count":1700,
			"type":"VEC3"
		},
		{
			"bufferView":2,
			"componentType":5126,
			"count":1700,
			"type":"VEC2"
		},
		{
			"bufferView":3,
			"componentType":5123,
			"count":6528,
			"type":"SCALAR"
		}
	],
	"bufferViews":[
		{
			"buffer":0,
			"byteLength":20400,
			"byteOffset":0,
			"target":34962
		},
		{
			"buffer":0,
			"byteLength":20400,
			"byteOffset":20400,
			"target":34962
		},
		{
			"buffer":0,
			"byteLength":13600,
			"byteOffset":40800,
			"target":34962
		},
		{
			"buffer":0,
			"byteLength":13056,
			"byteOffset":54400,
			"target":34963
		}
	],
	"buffers":[
		{
			"byteLength":67456,
			"uri":"Untitled.bin"
		}
	]
}
